<svg xmlns="http://www.w3.org/2000/svg" viewBox="0 0 180 180" fill="none" shape-rendering="auto" aria-hidden="true" width="512" height="512"><!-- Generated by DiceBear (https://dicebear.com) --><metadata xmlns:rdf="http://www.w3.org/1999/02/22-rdf-syntax-ns#" xmlns:xsi="http://www.w3.org/2001/XMLSchema-instance" xmlns:dc="http://purl.org/dc/elements/1.1/" xmlns:dcterms="http://purl.org/dc/terms/"><rdf:RDF><rdf:Description><dc:title>Bottts</dc:title><dc:creator>Pablo Stanley</dc:creator><dc:source xsi:type="dcterms:URI">https://bottts.com/</dc:source><dcterms:license xsi:type="dcterms:URI">https://bottts.com/</dcterms:license><dc:rights>Remix of “Bottts” (https://bottts.com/) by “Pablo Stanley”, licensed under “Free for personal and commercial use” (https://bottts.com/)</dc:rights></rdf:Description></rdf:RDF></metadata><defs><g id="sides-antenna01-36fc94b0"><mask id="sidesAntenna01-a" style="mask-type:luminance"><rect y="31" width="36" height="14" rx="4" fill="white"/><rect x="12" y="14" width="36" height="48" rx="4" fill="white"/><rect x="120" y="28" width="36" height="24" rx="4" fill="white"/><rect x="5" y="11" width="2" height="20" fill="white"/></mask><g mask="url(#sidesAntenna01-a)"><path d="M-6 0h180v76H-6z" fill="#40a843"/><rect x="-6" width="180" height="76" fill="white" fill-opacity=".3"/><rect x="-6" y="38" width="180" height="38" fill="black" fill-opacity=".1"/></g><rect x="5" y="11" width="2" height="20" fill="white" fill-opacity=".4"/><circle cx="6" cy="8" r="4" fill="#FFEA8F"/><circle cx="7" cy="7" r="2" fill="white"/></g><g id="top-antenna-36fc94b0"><mask id="topAntenna-a" style="mask-type:luminance"><path d="M30 38.6a2 2 0 0 1 2-2h20a2 2 0 0 1 2 2v14H30z" fill="white"/><rect x="40" y="5.59" width="4" height="31" fill="white"/></mask><g mask="url(#topAntenna-a)"><path d="M-8 .6H92v52H-8z" fill="#40a843"/><path d="M-8 3.6H92v52H-8z" fill="white" fill-opacity=".3"/><rect x="30" y="36.59" width="24" height="16" fill="white" fill-opacity=".2"/></g><circle cx="42" cy="8.59" r="8" fill="#FFE65C"/><circle cx="45" cy="5.59" r="3" fill="white"/></g><g id="head-square03-36fc94b0"><mask id="headSquare03-a" style="mask-type:luminance"><path fill-rule="evenodd" clip-rule="evenodd" d="M0 18A18 18 0 0 1 18 0h94a18 18 0 0 1 18 18v27.15a40 40 0 0 1-2.28 13.31L110.24 108a18 18 0 0 1-16.98 12H36.74a18 18 0 0 1-16.98-12L2.28 58.45A40 40 0 0 1 0 45.15z" fill="white"/></mask><g mask="url(#headSquare03-a)"><path d="M-2-2h134v124H-2z" fill="#40a843"/></g></g><g id="mouth-bite-36fc94b0"><rect y="1" width="68" height="22" rx="5" fill="black" fill-opacity=".2"/><rect x="4" y="5" width="60" height="14" rx="2" fill="black" fill-opacity=".6"/><path fill-rule="evenodd" clip-rule="evenodd" d="m16 13 6-8H10zm12 0 6-8H22zm12 0 6-8H34zm12 0 6-8H46z" fill="#E1E6E8"/></g><g id="eyes-frame2-36fc94b0"><rect x="8" y="10" width="88" height="36" rx="4" fill="black" fill-opacity=".8"/><rect x="28" y="21" width="10" height="17" rx="2" fill="#5EF2B8"/><rect x="66" y="21" width="10" height="17" rx="2" fill="#5EF2B8"/><path fill-rule="evenodd" clip-rule="evenodd" d="M83 10h5L76 46h-5z" fill="white" fill-opacity=".4"/></g><clipPath id="clip-36fc94b0"><rect width="180" height="180" rx="0" ry="0"/></clipPath></defs><g clip-path="url(#clip-36fc94b0)"><use transform="translate(6 66)" href="#sides-antenna01-36fc94b0"/><use transform="translate(49 -.6)" href="#top-antenna-36fc94b0"/><use transform="translate(25 44)" href="#head-square03-36fc94b0"/><use transform="translate(56 128)" href="#mouth-bite-36fc94b0"/><use transform="translate(38 76)" href="#eyes-frame2-36fc94b0"/></g></svg>