<svg xmlns="http://www.w3.org/2000/svg" viewBox="0 0 180 180" fill="none" shape-rendering="auto" aria-hidden="true" width="512" height="512"><!-- Generated by DiceBear (https://dicebear.com) --><metadata xmlns:rdf="http://www.w3.org/1999/02/22-rdf-syntax-ns#" xmlns:xsi="http://www.w3.org/2001/XMLSchema-instance" xmlns:dc="http://purl.org/dc/elements/1.1/" xmlns:dcterms="http://purl.org/dc/terms/"><rdf:RDF><rdf:Description><dc:title>Bottts</dc:title><dc:creator>Pablo Stanley</dc:creator><dc:source xsi:type="dcterms:URI">https://bottts.com/</dc:source><dcterms:license xsi:type="dcterms:URI">https://bottts.com/</dcterms:license><dc:rights>Remix of “Bottts” (https://bottts.com/) by “Pablo Stanley”, licensed under “Free for personal and commercial use” (https://bottts.com/)</dc:rights></rdf:Description></rdf:RDF></metadata><defs><g id="sides-squareAssymetric-ca7d1987"><mask id="sidesSquareAssymetric-a" style="mask-type:luminance"><rect x="4" y="31" width="36" height="30" rx="4" fill="white"/><rect x="14" y="15" width="26" height="30" rx="4" fill="white"/><rect x="133" y="23" width="36" height="30" rx="4" fill="white"/><rect x="128" y="8" width="36" height="60" rx="4" fill="white"/></mask><g mask="url(#sidesSquareAssymetric-a)"><path d="M-6 0h180v76H-6z" fill="#7a9f12"/><path d="M-6 0h180v76H-6z" fill="white" fill-opacity=".3"/><rect x="-6" y="47" width="180" height="29" fill="black" fill-opacity=".1"/><circle cx="155" cy="20" r="5" fill="white" fill-opacity=".6"/><circle cx="155" cy="36" r="5" fill="white" fill-opacity=".6"/></g></g><g id="top-antennaCrooked-ca7d1987"><mask id="topAntennaCrooked-a" style="mask-type:luminance"><path d="M47.54 34.98 43 45.59h-3.74l4.92-10.43-6.05-10.43 3.22-11.84 2.9.8-2.9 10.6z" fill="white"/><rect x="30" y="39.59" width="24" height="13" fill="white"/></mask><g mask="url(#topAntennaCrooked-a)"><path d="M-8 .6H92v52H-8z" fill="#7a9f12"/><path d="M-8 6.6H92v52H-8z" fill="white" fill-opacity=".3"/><rect x="30" y="39.59" width="24" height="13" fill="white" fill-opacity=".2"/></g><circle cx="42" cy="8.59" r="8" fill="#FFE65C"/><circle cx="45" cy="5.59" r="3" fill="white"/></g><g id="texture-dirty02-ca7d1987"><path fill-rule="evenodd" clip-rule="evenodd" d="M143 130.65c-3.19-17.34-9.55-2.58-24.85-5.63-6.76-1.35-1.3-7.25-6.34-9.8-4.26-2.17-10.06-.43-14.94-1.82-7.04-2.02-6.95-6.12-13.5-6.73-6.2-.58-12.7 1.33-18.97.61-11.8-1.35-6.96-19.22-15.82-22.38-8.85-3.15-23.43 2.3-25.34 11.23-1.86 8.71 10.57 41.12 10.57 41.12H143" fill="black" fill-opacity=".2"/><path fill-rule="evenodd" clip-rule="evenodd" d="M179 122.77c-51.24 0-56.58-25.8-81.8-37.61C72 73.34 49.9 103.9 41.44 74.2S33 137.07 33 137.07h146z" fill="black" fill-opacity=".1"/><path fill-rule="evenodd" clip-rule="evenodd" d="M184.58 9.18c-11.94-.98-5.04 10.8-9.75 10.8-6.97 0-2.1-7.97-10.58-7.78-2.22.06-4.95 1.94-5.12 4.5-.36 5.52 3.72 15.03-1.83 15.3-5.18.25-1.1-9.64-1.65-16.24-.3-3.77-4.18-6.75-6.97-6.75-7.57 0-1.68 15.7-7.13 15.7s-1.21-9.05-5.08-13.84c-4.5-5.57-19.3-8.3-8.75-10.87h57.15" fill="black" fill-opacity=".4"/></g><g id="head-square02-ca7d1987"><mask id="headSquare02-a" style="mask-type:luminance"><path d="M0 12A12 12 0 0 1 12 0h106a12 12 0 0 1 12 12v70a38 38 0 0 1-38 38H38A38 38 0 0 1 0 82z" fill="white"/></mask><g mask="url(#headSquare02-a)"><path d="M-2-2h134v124H-2z" fill="#7a9f12"/><use transform="translate(-44 -7)" href="#texture-dirty02-ca7d1987"/></g></g><g id="mouth-grill02-ca7d1987"><rect x="24" y="6" width="6" height="14" rx="2" fill="black" fill-opacity=".6"/><rect x="10" y="6" width="6" height="14" rx="2" fill="black" fill-opacity=".6"/><rect x="38" y="6" width="6" height="14" rx="2" fill="black" fill-opacity=".6"/><rect x="52" y="6" width="6" height="14" rx="2" fill="black" fill-opacity=".6"/></g><g id="eyes-glow-ca7d1987"><circle cx="21" cy="30" r="15" fill="white" fill-opacity=".1"/><circle cx="83" cy="30" r="15" fill="white" fill-opacity=".1"/><circle cx="21" cy="30" r="12" fill="white" fill-opacity=".1"/><circle cx="83" cy="30" r="12" fill="white" fill-opacity=".1"/><circle cx="21" cy="30" r="6" fill="white" fill-opacity=".8"/><circle cx="83" cy="30" r="6" fill="white" fill-opacity=".8"/><circle cx="21" cy="30" r="3" fill="white" fill-opacity=".8"/><circle cx="83" cy="30" r="3" fill="white" fill-opacity=".8"/></g><clipPath id="clip-ca7d1987"><rect width="180" height="180" rx="0" ry="0"/></clipPath></defs><g clip-path="url(#clip-ca7d1987)"><use transform="translate(6 66)" href="#sides-squareAssymetric-ca7d1987"/><use transform="translate(49 -.6)" href="#top-antennaCrooked-ca7d1987"/><use transform="translate(25 44)" href="#head-square02-ca7d1987"/><use transform="translate(56 128)" href="#mouth-grill02-ca7d1987"/><use transform="translate(38 76)" href="#eyes-glow-ca7d1987"/></g></svg>