<svg xmlns="http://www.w3.org/2000/svg" viewBox="0 0 180 180" fill="none" shape-rendering="auto" aria-hidden="true" width="512" height="512"><!-- Generated by DiceBear (https://dicebear.com) --><metadata xmlns:rdf="http://www.w3.org/1999/02/22-rdf-syntax-ns#" xmlns:xsi="http://www.w3.org/2001/XMLSchema-instance" xmlns:dc="http://purl.org/dc/elements/1.1/" xmlns:dcterms="http://purl.org/dc/terms/"><rdf:RDF><rdf:Description><dc:title>Bottts</dc:title><dc:creator>Pablo Stanley</dc:creator><dc:source xsi:type="dcterms:URI">https://bottts.com/</dc:source><dcterms:license xsi:type="dcterms:URI">https://bottts.com/</dcterms:license><dc:rights>Remix of “Bottts” (https://bottts.com/) by “Pablo Stanley”, licensed under “Free for personal and commercial use” (https://bottts.com/)</dc:rights></rdf:Description></rdf:RDF></metadata><defs><g id="sides-square-7898fd29"><mask id="sidesSquare-a" style="mask-type:luminance"><rect x="8" y="16" width="36" height="44" rx="9" fill="white"/><rect x="124" y="16" width="36" height="44" rx="9" fill="white"/></mask><g mask="url(#sidesSquare-a)"><path d="M-6 0h180v76H-6z" fill="#15a594"/><path d="M-6 0h180v76H-6z" fill="white" fill-opacity=".3"/><rect x="-6" y="38" width="180" height="38" fill="black" fill-opacity=".1"/></g></g><g id="top-pyramid-7898fd29"><mask id="topPyramid-a" style="mask-type:luminance"><path fill-rule="evenodd" clip-rule="evenodd" d="m42 8.6 32 44H10z" fill="white"/></mask><g mask="url(#topPyramid-a)"><path d="M-8 .6H92v52H-8z" fill="#15a594"/><path d="M-8 .6H92v52H-8z" fill="white" fill-opacity=".3"/><rect x="42" y="4.59" width="30" height="48" fill="white" fill-opacity=".8"/></g></g><g id="head-round01-7898fd29"><mask id="headRound01-a" style="mask-type:luminance"><path fill-rule="evenodd" clip-rule="evenodd" d="M66 0c58.35 0 64 40.69 64 78 0 33.32-25.47 42-64 42-37.46 0-66-8.69-66-42C0 40.69 7.65 0 66 0" fill="white"/></mask><g mask="url(#headRound01-a)"><path d="M-4-2h138v124H-4z" fill="#15a594"/></g></g><g id="mouth-square01-7898fd29"><rect x="20" y="2" width="27" height="8" rx="4" fill="black" fill-opacity=".8"/></g><g id="eyes-round-7898fd29"><circle cx="24" cy="30" r="6" fill="white"/><circle cx="80" cy="30" r="6" fill="white"/></g><clipPath id="clip-7898fd29"><rect width="180" height="180" rx="0" ry="0"/></clipPath></defs><g clip-path="url(#clip-7898fd29)"><use transform="translate(6 66)" href="#sides-square-7898fd29"/><use transform="translate(49 -.6)" href="#top-pyramid-7898fd29"/><use transform="translate(25 44)" href="#head-round01-7898fd29"/><use transform="translate(56 128)" href="#mouth-square01-7898fd29"/><use transform="translate(38 76)" href="#eyes-round-7898fd29"/></g></svg>