<svg xmlns="http://www.w3.org/2000/svg" viewBox="0 0 180 180" fill="none" shape-rendering="auto" aria-hidden="true" width="512" height="512"><!-- Generated by DiceBear (https://dicebear.com) --><metadata xmlns:rdf="http://www.w3.org/1999/02/22-rdf-syntax-ns#" xmlns:xsi="http://www.w3.org/2001/XMLSchema-instance" xmlns:dc="http://purl.org/dc/elements/1.1/" xmlns:dcterms="http://purl.org/dc/terms/"><rdf:RDF><rdf:Description><dc:title>Bottts</dc:title><dc:creator>Pablo Stanley</dc:creator><dc:source xsi:type="dcterms:URI">https://bottts.com/</dc:source><dcterms:license xsi:type="dcterms:URI">https://bottts.com/</dcterms:license><dc:rights>Remix of “Bottts” (https://bottts.com/) by “Pablo Stanley”, licensed under “Free for personal and commercial use” (https://bottts.com/)</dc:rights></rdf:Description></rdf:RDF></metadata><defs><g id="sides-antenna01-689a9712"><mask id="sidesAntenna01-a" style="mask-type:luminance"><rect y="31" width="36" height="14" rx="4" fill="white"/><rect x="12" y="14" width="36" height="48" rx="4" fill="white"/><rect x="120" y="28" width="36" height="24" rx="4" fill="white"/><rect x="5" y="11" width="2" height="20" fill="white"/></mask><g mask="url(#sidesAntenna01-a)"><path d="M-6 0h180v76H-6z" fill="#b46bd6"/><rect x="-6" width="180" height="76" fill="white" fill-opacity=".3"/><rect x="-6" y="38" width="180" height="38" fill="black" fill-opacity=".1"/></g><rect x="5" y="11" width="2" height="20" fill="white" fill-opacity=".4"/><circle cx="6" cy="8" r="4" fill="#FFEA8F"/><circle cx="7" cy="7" r="2" fill="white"/></g><g id="top-antennaCrooked-689a9712"><mask id="topAntennaCrooked-a" style="mask-type:luminance"><path d="M47.54 34.98 43 45.59h-3.74l4.92-10.43-6.05-10.43 3.22-11.84 2.9.8-2.9 10.6z" fill="white"/><rect x="30" y="39.59" width="24" height="13" fill="white"/></mask><g mask="url(#topAntennaCrooked-a)"><path d="M-8 .6H92v52H-8z" fill="#b46bd6"/><path d="M-8 6.6H92v52H-8z" fill="white" fill-opacity=".3"/><rect x="30" y="39.59" width="24" height="13" fill="white" fill-opacity=".2"/></g><circle cx="42" cy="8.59" r="8" fill="#FFE65C"/><circle cx="45" cy="5.59" r="3" fill="white"/></g><g id="texture-dirty01-689a9712"><path fill-rule="evenodd" clip-rule="evenodd" d="M33.88 128.1c4.36-30.7 13.06-4.57 33.99-9.98 9.24-2.4 1.77-12.82 8.67-17.35 5.82-3.82 13.76-.74 20.43-3.21 9.63-3.57 9.5-10.82 18.48-11.9 8.48-1.03 17.37 2.34 25.93 1.08 16.15-2.4 9.53-34.03 21.64-39.61 12.1-5.6 32.05 4.06 34.66 19.87 2.54 15.42-14.46 72.78-14.46 72.78H33.88" fill="black" fill-opacity=".2"/><path fill-rule="evenodd" clip-rule="evenodd" d="M78.93 128c37.67 0 41.6-14.75 60.13-21.5s34.79 10.71 41.02-6.27 6.2 35.95 6.2 35.95H78.93z" fill="black" fill-opacity=".1"/><path fill-rule="evenodd" clip-rule="evenodd" d="M41 10.87C52.73 9.75 48.96 22.8 53.6 22.8c1.85 0 4.03-8.46 7.38-8.46 2.46 0 2 5.5 7.33 4.91 5-.54 4.07-4 6.6-4 5.44 0 3.38 20.2 7.73 20.2s5.73-14.8 7.65-20.64c2.43-7.4 16.97-11.56 6.6-14.5H40.71" fill="black" fill-opacity=".4"/></g><g id="head-round01-689a9712"><mask id="headRound01-a" style="mask-type:luminance"><path fill-rule="evenodd" clip-rule="evenodd" d="M66 0c58.35 0 64 40.69 64 78 0 33.32-25.47 42-64 42-37.46 0-66-8.69-66-42C0 40.69 7.65 0 66 0" fill="white"/></mask><g mask="url(#headRound01-a)"><path d="M-4-2h138v124H-4z" fill="#b46bd6"/><use transform="translate(-44 -7)" href="#texture-dirty01-689a9712"/></g></g><g id="mouth-square02-689a9712"><rect x="12" y="4" width="44" height="4" rx="2" fill="black" fill-opacity=".8"/></g><g id="eyes-eva-689a9712"><path fill-rule="evenodd" clip-rule="evenodd" d="M53 0c34.75 0 49 17.47 49 31S82.4 48 53 48C23.95 48 2 44.53 2 31S17.11 0 53 0" fill="black" fill-opacity=".8"/><path fill-rule="evenodd" clip-rule="evenodd" d="M28.82 34.65C22.29 33.3 17.58 28.31 18.3 23.5c.72-4.78 6.6-7.57 13.12-6.22 6.53 1.36 11.24 6.35 10.52 11.15s-6.6 7.59-13.12 6.23m46.6 0C68.9 36 63.02 33.2 62.3 28.4s4-9.8 10.52-11.15 12.4 1.44 13.12 6.24-4 9.8-10.52 11.14" fill="#25A6F5"/></g><clipPath id="clip-689a9712"><rect width="180" height="180" rx="0" ry="0"/></clipPath></defs><g clip-path="url(#clip-689a9712)"><use transform="translate(6 66)" href="#sides-antenna01-689a9712"/><use transform="translate(49 -.6)" href="#top-antennaCrooked-689a9712"/><use transform="translate(25 44)" href="#head-round01-689a9712"/><use transform="translate(56 128)" href="#mouth-square02-689a9712"/><use transform="translate(38 76)" href="#eyes-eva-689a9712"/></g></svg>